<?xml version="1.0" encoding="utf-8"?>
<!-- Generator: Adobe Illustrator 16.0.0, SVG Export Plug-In . SVG Version: 6.00 Build 0)  -->
<!DOCTYPE svg PUBLIC "-//W3C//DTD SVG 1.1//EN" "http://www.w3.org/Graphics/SVG/1.1/DTD/svg11.dtd">
<svg version="1.1" id="Layer_1" xmlns="http://www.w3.org/2000/svg" xmlns:xlink="http://www.w3.org/1999/xlink" x="0px" y="0px"
	 width="256px" height="256px" viewBox="0 0 256 256" enable-background="new 0 0 256 256" xml:space="preserve">
<g>
	<g>
		<path fill="#BCF170" d="M129.402,68.999c-2.322,0-4.204-1.882-4.204-4.205c0-15.4-1.316-29.502-17.485-46.101
			c-1.621-1.66-1.586-4.323,0.074-5.939c1.665-1.619,4.327-1.592,5.945,0.073c18.355,18.837,19.871,35.331,19.871,51.967
			C133.603,67.117,131.721,68.999,129.402,68.999z"/>
	</g>
	<path fill="#FF6E69" d="M243.813,124.997c0-75.529-51.851-62.435-115.813-62.435c-63.96,0-115.813-16.116-115.813,62.435
		c0,61.459,51.853,130.919,115.813,130.919C191.963,255.916,243.813,186.456,243.813,124.997z"/>
	<path fill="#BCF170" d="M178.232,1.287c-11.837-3.15-24.975-0.122-34.261,9.165c-9.283,9.287-12.314,22.422-9.164,34.264
		c11.84,3.15,24.98,0.117,34.262-9.163C178.355,26.266,181.386,13.125,178.232,1.287z"/>
	<path opacity="0.15" d="M133.587,62.524c-0.098-9.678-0.969-19.353-5.586-29.502v222.894c63.962,0,115.813-69.46,115.813-130.919
		C243.813,51.679,194.954,61.868,133.587,62.524z"/>
	<path opacity="0.15" d="M134.808,44.716c11.84,3.15,24.98,0.117,34.262-9.163c9.286-9.287,12.316-22.428,9.163-34.266
		L134.808,44.716z"/>
	<circle fill="#FFFFFF" cx="45.184" cy="97.291" r="13.793"/>
	<path fill="#FFFFFF" d="M70.581,115.196c0-3.725-3.02-6.745-6.748-6.745c-3.727,0-6.747,3.02-6.747,6.745
		c0,3.729,3.02,6.75,6.747,6.75C67.561,121.945,70.581,118.925,70.581,115.196z"/>
</g>
</svg>
