<?xml version="1.0" encoding="utf-8"?>
<!-- Generator: Adobe Illustrator 16.0.0, SVG Export Plug-In . SVG Version: 6.00 Build 0)  -->
<!DOCTYPE svg PUBLIC "-//W3C//DTD SVG 1.1//EN" "http://www.w3.org/Graphics/SVG/1.1/DTD/svg11.dtd">
<svg version="1.1" id="Layer_1" xmlns="http://www.w3.org/2000/svg" xmlns:xlink="http://www.w3.org/1999/xlink" x="0px" y="0px"
	 width="256px" height="256px" viewBox="0 0 256 256" enable-background="new 0 0 256 256" xml:space="preserve">
<g>
	<rect x="7.911" y="57.301" fill="#BCF170" width="240.178" height="135.908"/>
	<path fill="#48707C" d="M249.407,49.388H6.593C2.958,49.388,0,52.349,0,55.983v138.545c0,3.634,2.958,6.589,6.593,6.589h242.814
		c3.635,0,6.593-2.955,6.593-6.589V55.983C256,52.349,253.042,49.388,249.407,49.388z M248.089,193.209H7.911V57.301h240.178
		V193.209z"/>
	<path fill="#48707C" d="M174.805,201.341c0,2.896-2.372,5.272-5.271,5.272H86.467c-2.901,0-5.271-2.377-5.271-5.272v-0.442
		c0-2.896,2.37-5.272,5.271-5.272h83.066c2.899,0,5.271,2.377,5.271,5.272V201.341z"/>
	<path fill="#FFFFFF" d="M61.365,188.294c0-2.563-2.095-4.655-4.656-4.655H29.765c-2.561,0-4.654,2.093-4.654,4.655v0.261
		c0,2.563,2.093,4.654,4.654,4.654h26.944c2.562,0,4.656-2.092,4.656-4.654V188.294z"/>
	<g>
		<path fill="#FFFFFF" d="M58.08,132.321c-3.39,0.834-6.818,1.471-10.254,2.083c-0.221-7.303-0.648-14.503-0.218-21.838
			c0.425-7.174,0.728-14.184-0.787-21.252c-0.531-2.471-3.576-2.281-4.82-0.627c-3.045,4.033-5.198,8.481-8.822,12.09
			c-3.215,3.205-6.925,5.628-9.885,9.13c-2.179,2.578,1.53,6.33,3.73,3.731c3.513-4.156,7.972-7.227,11.814-11.054
			c1.483-1.477,2.657-3.242,3.768-5.048c0.313,5.324-0.133,10.682-0.452,16.044c-0.389,6.611,0.207,13.169,0.419,19.765
			c-3.874,0.701-7.732,1.482-11.521,2.582c-3.263,0.946-1.874,6.032,1.397,5.086c8.865-2.565,18.083-3.407,27.03-5.605
			C62.783,136.6,61.383,131.514,58.08,132.321z"/>
		<path fill="#FFFFFF" d="M86.582,110.589c-1.709,1.632-4.446,2.115-6.879,2.466c-0.582-2.423-1.25-4.831-1.897-7.238
			c-0.888-3.279-5.974-1.881-5.087,1.403c0.584,2.164,1.196,4.332,1.744,6.511c-2.063,0.217-4.125,0.419-6.165,0.792
			c-3.343,0.611-1.92,5.691,1.404,5.085c1.82-0.329,3.815-0.505,5.851-0.686c0.202,1.35,0.334,2.705,0.369,4.076
			c0.083,3.397,5.355,3.407,5.275,0c-0.037-1.567-0.201-3.119-0.43-4.66c3.587-0.558,6.996-1.584,9.544-4.023
			C92.773,111.966,89.04,108.24,86.582,110.589z"/>
		<path fill="#FFFFFF" d="M115.606,110.175c4.847-3.417,7.148-9.109,1.988-15.211c-4.215-4.99-17.134-11.548-21.205-3.289
			c-1.501,3.04,3.048,5.713,4.549,2.663c2.898-5.873,28.218,12.404,5.307,13.828c-3.373,0.213-3.426,5.208,0,5.277
			c4.503,0.091,9.55,0.298,11.548,5.294c1.772,4.432-0.678,8.051-4.76,9.412c-4.777,1.584-10.411,0.829-15.359,0.787
			c-3.4-0.032-3.4,5.24,0,5.272c7.627,0.068,21.147,1.699,24.798-7.314C125.821,118.609,121.819,112.965,115.606,110.175z"/>
		<path fill="#FFFFFF" d="M163.916,118.748c-3.499,2.386-8.77,2.333-12.88,2.774c-4.897,0.526-9.713,0.686-14.506,1.903
			c-3.299,0.84-1.896,5.926,1.4,5.086c8.719-2.217,20.91,0.064,28.647-5.209C169.371,121.399,166.736,116.824,163.916,118.748z"/>
		<path fill="#FFFFFF" d="M162.624,110.446c3.088-1.414,0.406-5.958-2.665-4.555c-7.908,3.608-16.549,5.261-25.079,6.654
			c-3.349,0.547-1.922,5.628,1.402,5.086C145.318,116.16,154.257,114.267,162.624,110.446z"/>
		<path fill="#FFFFFF" d="M209.415,117.791c0-5.405,0-10.809,0-16.215c0-3.401-5.274-3.401-5.274,0c0,5.432,0,10.863,0,16.294
			c-6.22,0.245-12.446,0.622-18.635-0.031c1.854-5.831,4.248-11.458,6.346-17.208c1.945-5.341,2.453-11.219,5.997-15.853
			c2.067-2.7-2.517-5.325-4.554-2.663c-3.097,4.049-4.229,9.146-5.562,13.972c-2.19,7.935-6.015,15.306-8.217,23.246
			c-0.354,1.271,0.423,3.019,1.842,3.247c7.596,1.217,15.164,0.797,22.782,0.547c0,5.452,0,10.906,0,16.354c0,3.4,5.274,3.4,5.274,0
			c0-5.517,0-11.034,0-16.549C212.331,122.547,212.334,118.099,209.415,117.791z"/>
	</g>
	<path opacity="0.15" d="M249.407,49.388H128v157.226h41.533c2.899,0,5.271-2.377,5.271-5.272v-0.224h74.603
		c3.635,0,6.593-2.955,6.593-6.589V55.983C256,52.349,253.042,49.388,249.407,49.388z"/>
</g>
</svg>
