<?xml version="1.0" encoding="utf-8"?>
<!-- Generator: Adobe Illustrator 16.0.0, SVG Export Plug-In . SVG Version: 6.00 Build 0)  -->
<!DOCTYPE svg PUBLIC "-//W3C//DTD SVG 1.1//EN" "http://www.w3.org/Graphics/SVG/1.1/DTD/svg11.dtd">
<svg version="1.1" id="Layer_1" xmlns="http://www.w3.org/2000/svg" xmlns:xlink="http://www.w3.org/1999/xlink" x="0px" y="0px"
	 width="256px" height="256px" viewBox="0 0 256 256" enable-background="new 0 0 256 256" xml:space="preserve">
<g>
	<g>
		<rect x="113.204" y="172.88" fill="#48707C" width="13.376" height="75.456"/>
	</g>
	<g>
		<path fill="#48707C" d="M175.9,256H63.886c-3.695,0-6.689-2.993-6.689-6.688c0-3.695,2.994-6.688,6.689-6.688H175.9
			c3.693,0,6.688,2.992,6.688,6.688C182.588,253.007,179.594,256,175.9,256z"/>
	</g>
	<g>
		<path fill="#48707C" d="M113.749,179.781c-27.826,0-53.983-10.831-73.658-30.509c-1.257-1.255-1.959-2.953-1.959-4.729
			c0-1.773,0.702-3.476,1.959-4.729L177.95,1.959c2.612-2.612,6.845-2.612,9.458,0c40.614,40.615,40.614,106.703,0,147.313
			C167.732,168.95,141.574,179.781,113.749,179.781z M54.446,144.376c16.48,14.254,37.292,22.029,59.302,22.029
			c24.253,0,47.053-9.442,64.202-26.591c33.81-33.807,35.328-87.866,4.557-123.491L54.446,144.376z"/>
	</g>
	<path fill="#BCF170" d="M166.426,128.298c29.092-29.094,29.094-76.261,0-105.36c-29.094-29.088-76.263-29.088-105.354,0
		c-29.097,29.094-29.097,76.266,0,105.36C90.166,157.387,137.332,157.382,166.426,128.298z"/>
	<path fill="#A5D34C" d="M75.138,11.908l102.324,102.318c4.661-7.682,7.822-16.016,9.454-24.589L99.732,2.451
		C91.159,4.081,82.818,7.241,75.138,11.908z"/>
	<path fill="#A5D34C" d="M41.754,56.494l91.119,91.112c8.192-2.169,16.08-5.753,23.288-10.759L52.518,33.2
		C47.512,40.412,43.922,48.3,41.754,56.494z"/>
	<path opacity="0.15" d="M187.408,149.272c40.614-40.611,40.614-106.698,0-147.313c-2.613-2.612-6.846-2.612-9.458,0l-16.474,16.475
		C149.354,8.292,134.771,2.623,119.894,1.4v148.446c16.965-1.39,33.548-8.567,46.532-21.548c4.327-4.332,7.994-9.065,11.036-14.071
		l0,0c0.002-0.005,0.006-0.011,0.01-0.016c1.133-1.87,2.171-3.777,3.125-5.717c0.045-0.093,0.092-0.183,0.136-0.276
		c0.92-1.891,1.756-3.81,2.509-5.759c0.057-0.151,0.112-0.296,0.167-0.448c0.731-1.929,1.385-3.878,1.948-5.847
		c0.041-0.146,0.076-0.287,0.115-0.434c6.438-23.037,1.594-48.551-14.535-67.837l11.57-11.569
		c30.771,35.625,29.253,89.684-4.557,123.491c-15.69,15.691-36.118,24.907-58.056,26.361V256H175.9c3.693,0,6.688-2.993,6.688-6.688
		c0-3.695-2.994-6.688-6.688-6.688h-49.32v-63.653C149.544,176.171,170.792,165.894,187.408,149.272z"/>
</g>
</svg>
